<svg xmlns="http://www.w3.org/2000/svg" width="32" height="32" viewBox="0 0 32 32"><g transform="translate(310 -1090.862)"><path fill="#f05542" d="M-306.00003 1114.9038c0-3.9142 1.38168-9.133 8.20743-14.7867l8.01381 0c6.82575 5.6537 8.35145 10.8725 8.35145 14.7867l0-.3446 0 .7795c0 3.614-5.07381 6.5235-11.37625 6.5235l-1.82019 0c-6.30245 0-11.37625-2.9095-11.37625-6.5235l0-.7795zM-297.65336 1098.3523c-1.14719-1.0527-1.79132-2.4781-1.79132-3.9641l-.00079.046c-.00001-.5629.27034-1.0831.7092-1.3646.43886-.2815.97955-.2815 1.41841 0 .43886.2815.70921.8017.7092 1.3646l-.002 0c-.00001-.5629.27034-1.0831.7092-1.3646.43885-.2815.97955-.2815 1.4184 0 .43886.2815.70921.8017.7092 1.3646l-.0007 0c0-.5629.27034-1.0831.7092-1.3646.43886-.2815.97955-.2815 1.41841 0 .43886.2815.70921.8017.7092 1.3646l-.002 0c-.00001-.5629.27034-1.0831.7092-1.3646.43886-.2815.97955-.2815 1.4184 0 .43886.2815.70921.8017.7092 1.3646l-.00078-.046c0 1.486-.64413 2.9114-1.79132 3.9641"/><path fill="#f8b84e" d="m -287.42731,1111.8619 c 0,3.3118 -2.69837,6.0003 -6.01683,6.0003 -3.31939,0 -5.98179,-2.6885 -5.98179,-6.0003 0,-3.3106 2.6624,-5.9991 5.98178,-5.9991 3.31847,0 6.01684,2.6885 6.01684,5.9991 l 0,0 z"/><path fill="#2b4255" fill-rule="evenodd" style="line-height:normal;text-indent:0;text-align:start;text-decoration-line:none;text-decoration-style:solid;text-decoration-color:#000;text-transform:none;block-progression:tb;isolation:auto;mix-blend-mode:normal" d="m -295.90809,1108.4 0,1 1.02735,0 c 1.2074,0 1.65625,0.7377 1.65625,1.4922 0,0.7545 -0.44885,1.4903 -1.65625,1.4903 l -1.02735,0 0,1 1.02735,0 c 1.6688,0 2.65625,-1.2541 2.65625,-2.4903 0,-1.2361 -0.98745,-2.4922 -2.65625,-2.4922 l -1.02735,0 z" color="#000" font-family="sans-serif" font-weight="400" overflow="visible"/><path fill="#2b4255" fill-rule="evenodd" style="line-height:normal;text-indent:0;text-align:start;text-decoration-line:none;text-decoration-style:solid;text-decoration-color:#000;text-transform:none;block-progression:tb;isolation:auto;mix-blend-mode:normal" d="M-295.885 1110.3916l0 1 4.96906 0 0-1-4.96906 0zM-295.885 1108.3916l0 1 4.96906 0 0-1-4.96906 0zM-295.23817 1112.3766l-.69921.7168 3.37695 3.2988.69922-.7148-3.37696-3.3008z" color="#000" font-family="sans-serif" font-weight="400" overflow="visible"/><path fill="#2b4255" fill-rule="evenodd" d="m -297.9387,1098.0773 0,2.1722 8.32149,0 0,-2.1722"/></g></svg>